<?xml version="1.0" standalone="no"?>
<!DOCTYPE svg PUBLIC "-//W3C//DTD SVG 20010904//EN"
 "http://www.w3.org/TR/2001/REC-SVG-20010904/DTD/svg10.dtd">
<svg version="1.0" xmlns="http://www.w3.org/2000/svg"
 width="261.000000pt" height="261.000000pt" viewBox="0 0 261.000000 261.000000"
 preserveAspectRatio="xMidYMid meet">
<metadata>
Created by potrace 1.14, written by Peter Selinger 2001-2017
</metadata>
<g transform="translate(0.000000,261.000000) scale(0.100000,-0.100000)"
fill="#000000" stroke="none">
<path d="M1190 2463 c0 -5 -25 -8 -55 -8 -40 1 -60 -4 -71 -16 -9 -10 -23 -15
-36 -11 -14 3 -19 1 -15 -5 5 -7 0 -9 -12 -6 -12 3 -33 -4 -50 -17 -17 -12
-35 -18 -41 -15 -5 3 -21 -5 -35 -19 -14 -14 -25 -20 -25 -13 0 7 -4 6 -10 -3
-5 -8 -10 -10 -10 -5 0 6 -6 3 -13 -6 -7 -8 -20 -18 -30 -22 -10 -4 -16 -11
-13 -16 3 -5 -2 -8 -12 -7 -9 0 -16 -5 -14 -12 1 -8 -2 -11 -7 -8 -13 8 -42
-4 -35 -15 3 -5 0 -9 -6 -9 -6 0 -8 -5 -4 -12 4 -7 3 -8 -4 -4 -7 4 -39 -20
-80 -60 -37 -37 -60 -64 -52 -60 8 5 2 -3 -15 -18 -16 -14 -25 -26 -20 -26 6
0 6 -3 0 -8 -21 -14 -56 -72 -50 -82 3 -6 -1 -7 -9 -4 -11 4 -16 0 -16 -13 0
-10 -5 -24 -12 -31 -9 -9 -9 -12 3 -13 7 0 4 -4 -9 -10 -13 -5 -21 -13 -17
-18 3 -5 1 -12 -4 -15 -5 -4 -8 -17 -7 -31 2 -13 -1 -22 -5 -19 -5 3 -9 -2 -9
-10 0 -9 -4 -16 -8 -16 -4 0 -8 -10 -9 -22 -2 -43 -12 -91 -20 -97 -4 -3 -10
-13 -12 -21 -8 -28 -7 -1520 1 -1520 4 0 5 -7 1 -16 -4 -10 1 -17 16 -21 11
-3 19 -9 16 -13 -10 -16 11 -18 43 -4 19 7 31 18 28 23 -3 5 1 8 9 7 7 0 14 2
15 6 1 16 96 105 107 101 6 -3 14 4 17 14 9 29 113 25 146 -5 15 -14 26 -18
31 -11 3 6 9 2 12 -11 4 -14 10 -19 18 -14 8 4 10 3 5 -4 -4 -7 -2 -12 4 -12
6 0 8 -5 5 -10 -3 -6 2 -10 11 -10 10 0 14 -3 11 -6 -7 -8 61 -73 77 -75 6 -1
38 -3 71 -4 68 -2 111 9 119 31 3 9 10 13 14 10 5 -3 15 6 22 19 7 13 17 22
22 19 4 -3 8 0 8 6 0 6 11 21 25 34 13 13 21 27 17 31 -4 5 -1 5 5 1 7 -4 29
1 49 10 38 18 104 27 104 14 0 -4 14 -13 31 -21 31 -12 109 -85 109 -101 0 -4
7 -8 15 -8 8 0 15 -4 15 -10 0 -5 7 -10 15 -10 8 0 15 -4 15 -10 0 -5 9 -10
20 -10 11 0 20 -6 20 -12 0 -9 3 -9 8 -3 4 6 25 10 47 10 50 -2 76 5 69 16 -3
5 2 6 10 3 9 -3 16 -1 16 5 0 6 7 11 16 11 18 0 44 23 44 39 0 6 5 11 11 11 6
0 9 7 5 15 -3 8 -2 14 2 13 14 -4 52 23 47 33 -4 5 -3 9 2 7 16 -4 73 14 73
23 0 6 4 8 9 4 5 -3 13 -1 16 5 5 8 11 8 19 1 7 -6 16 -8 19 -4 4 3 7 1 7 -5
0 -7 5 -12 12 -12 6 0 20 -8 31 -18 15 -12 19 -13 13 -2 -4 8 0 6 9 -5 9 -11
21 -19 26 -17 5 1 8 -4 7 -10 -2 -7 3 -12 10 -10 6 1 11 -3 10 -10 -2 -7 3
-12 10 -13 6 0 12 -4 13 -10 1 -19 22 -36 36 -31 8 3 12 2 9 -3 -3 -4 3 -16
14 -26 18 -17 21 -17 45 -1 14 10 29 26 33 36 4 10 7 359 6 774 0 595 -3 762
-13 783 -8 16 -17 36 -22 46 -6 11 -5 17 2 17 5 0 7 5 3 12 -4 7 -9 23 -10 37
-2 13 -8 27 -14 31 -6 4 -12 17 -13 28 -1 12 -5 22 -10 22 -4 0 -5 5 -2 10 4
6 -4 20 -17 31 -13 11 -17 18 -11 14 9 -4 11 -1 7 9 -3 9 -10 16 -15 16 -4 0
-6 7 -3 15 4 9 0 15 -9 15 -9 0 -17 10 -19 23 -2 12 -9 21 -16 20 -6 -2 -11 0
-10 5 2 12 -14 63 -19 58 -6 -6 -33 19 -33 29 0 10 -162 165 -172 165 -4 0
-17 9 -28 20 -11 11 -29 20 -40 20 -11 0 -19 6 -18 13 2 6 -3 11 -9 9 -7 -1
-13 3 -13 9 0 8 -6 7 -17 -2 -10 -7 -15 -9 -11 -5 12 14 -30 44 -57 41 -14 -1
-22 1 -20 6 3 4 -4 10 -15 14 -11 3 -20 12 -20 18 0 7 -4 6 -10 -3 -6 -10 -10
-11 -10 -2 0 6 -5 12 -11 12 -5 0 -7 -6 -3 -12 5 -10 4 -10 -6 -1 -7 6 -19 9
-28 6 -11 -5 -13 -3 -7 7 6 10 4 12 -8 7 -10 -4 -17 -2 -17 4 0 6 -7 8 -16 5
-8 -3 -13 -2 -10 3 3 5 -12 11 -34 13 -22 2 -40 -1 -40 -5 0 -5 -7 -3 -17 4
-9 8 -19 12 -22 11 -31 -18 -43 -23 -37 -14 7 11 -153 10 -172 -2 -7 -4 -12
-2 -12 3 0 6 -4 11 -10 11 -5 0 -10 -3 -10 -7z m-168 -694 c2 6 18 2 38 -11
19 -12 40 -22 45 -23 6 0 9 -6 8 -13 -2 -6 4 -20 13 -31 9 -10 18 -36 20 -57
2 -20 9 -41 16 -46 10 -6 10 -8 -2 -8 -10 0 -16 -11 -16 -30 -1 -20 -12 -41
-33 -60 -17 -17 -31 -35 -31 -40 0 -6 -6 -9 -12 -7 -7 1 -12 -2 -11 -8 1 -6
-26 -11 -63 -11 -36 -1 -64 3 -64 8 0 6 -7 8 -15 4 -9 -3 -32 12 -59 39 -45
44 -45 44 -48 124 -2 44 -2 78 0 76 6 -6 31 19 26 26 -4 7 67 66 74 61 3 -2 9
2 13 10 6 8 9 9 9 1 0 -6 9 -9 20 -6 11 3 20 9 20 14 0 5 11 2 24 -6 15 -10
25 -12 28 -6z m670 -4 c5 -6 8 -5 8 4 0 11 3 11 17 0 14 -12 16 -12 8 0 -5 9
5 5 22 -7 17 -12 36 -22 42 -22 6 0 13 -11 17 -25 3 -14 10 -22 15 -19 8 5 13
-9 10 -28 0 -5 3 -8 7 -8 11 0 9 -90 -1 -107 -5 -8 -3 -13 5 -13 9 0 9 -3 -2
-10 -8 -5 -12 -10 -8 -10 4 0 -4 -12 -17 -26 -13 -14 -27 -25 -31 -24 -3 1
-14 -10 -24 -25 -11 -17 -20 -23 -25 -16 -3 6 -12 8 -18 4 -18 -11 -126 -9
-124 2 1 5 -4 9 -11 7 -8 -1 -11 1 -8 6 3 5 -10 23 -29 40 -21 20 -35 27 -38
19 -3 -7 -4 6 -2 28 1 22 -2 43 -8 47 -7 4 -7 11 2 22 10 11 10 16 2 16 -8 0
-9 6 -3 18 5 9 7 23 5 30 -3 6 0 12 7 12 6 0 8 5 5 10 -3 6 -1 10 5 10 6 0 8
5 4 12 -4 6 -3 8 3 5 6 -4 19 4 29 18 10 13 21 22 25 19 4 -2 10 0 14 6 4 6
11 8 16 5 5 -4 9 -2 9 2 0 12 64 10 72 -2z m-137 -295 c3 -6 -1 -7 -9 -4 -18
7 -21 14 -7 14 6 0 13 -4 16 -10z"/>
</g>
</svg>
